<?xml version="1.0" encoding="UTF-8"?> <svg xmlns="http://www.w3.org/2000/svg" viewBox="1950 2450 100 100" width="100" height="100" data-guides="{&quot;vertical&quot;:[],&quot;horizontal&quot;:[]}"><ellipse color="rgb(51, 51, 51)" fill="rgb(33, 33, 33)" font-size-adjust="none" class="st0" cx="1999.8" cy="2499.6" r="50" id="tSvg5bf496de82" title="Ellipse 4" fill-opacity="1" stroke="none" stroke-opacity="1" rx="50" ry="50" style="transform: rotate(0deg); transform-origin: 1999.8px 2499.6px;"></ellipse><path fill="none" stroke="#efd99e" fill-opacity="1" stroke-width="2" stroke-opacity="1" color="rgb(51, 51, 51)" font-size-adjust="none" stroke-miterlimit="10" class="st1" id="tSvg13b548a0ecc" title="Path 5" d="M 1992 2498.3 C 1989.8 2498.3 1988 2496.5 1988 2494.3C 1988 2491.8 1990.2 2485 1990.6 2481.8C 1991 2478.9 1988.2 2476.5 1985.3 2476.5C 1982.4 2476.5 1979.6 2479 1980 2481.9C 1980.4 2485.1 1982.7 2491.8 1982.7 2494.4C 1982.7 2496.6 1980.9 2498.4 1978.7 2498.4C 1976.5666666666666 2498.4 1974.4333333333334 2498.4 1972.3 2498.4C 1972.3 2506.9333333333334 1972.3 2515.4666666666667 1972.3 2524C 1980.9333333333334 2524 1989.5666666666666 2524 1998.2 2524C 1998.2 2515.4333333333334 1998.2 2506.866666666667 1998.2 2498.3C 1996.1333333333334 2498.3 1994.0666666666666 2498.3 1992 2498.3Z"></path><ellipse color="rgb(51, 51, 51)" font-size-adjust="none" stroke-miterlimit="10" stroke-width="2" stroke="#f1d89c" class="st1" cx="1985.2" cy="2481.8" r="2.2" id="tSvg3cc1c13d34" title="Ellipse 5" fill="none" fill-opacity="1" stroke-opacity="1" rx="2.2" ry="2.2" style="transform: rotate(0deg); transform-origin: 1985.2px 2481.8px;"></ellipse><line color="rgb(51, 51, 51)" font-size-adjust="none" stroke-miterlimit="10" stroke-width="2" stroke="#f0dc9e" class="st1" x1="1972.3" y1="2505.8" x2="1998.2" y2="2505.8" id="tSvg142068ee269" title="Line 5" fill="none" fill-opacity="1" stroke-opacity="1" style="transform-origin: 1985.25px 2505.8px;"></line><path fill="none" stroke="#f2d89d" fill-opacity="1" stroke-width="2" stroke-opacity="1" color="rgb(51, 51, 51)" font-size-adjust="none" stroke-miterlimit="10" class="st1" id="tSvgee5e379168" title="Path 6" d="M 2016.6 2487.6 C 2016.6 2499.733333333333 2016.6 2511.866666666667 2016.6 2524C 2014.1 2524 2011.6 2524 2009.1 2524C 2009.1 2511.866666666667 2009.1 2499.733333333333 2009.1 2487.6"></path><path fill="none" stroke="#f3d99c" fill-opacity="1" stroke-width="2" stroke-opacity="1" color="rgb(51, 51, 51)" font-size-adjust="none" stroke-miterlimit="10" class="st1" id="tSvg4a64ea47bb" title="Path 7" d="M 2009.1 2479.7 C 2009.1 2478.2 2009.1 2476.7 2009.1 2475.2C 2011.6 2475.2 2014.1 2475.2 2016.6 2475.2C 2016.6 2476.7 2016.6 2478.2 2016.6 2479.7"></path><path fill="none" stroke="#f2dca2" fill-opacity="1" stroke-width="2" stroke-opacity="1" color="rgb(51, 51, 51)" font-size-adjust="none" stroke-miterlimit="10" class="st1" id="tSvg77f409027f" title="Path 8" d="M 2027.4 2483.8 C 2027.4 2485.0666666666666 2027.4 2486.3333333333335 2027.4 2487.6C 2017.7333333333333 2487.6 2008.0666666666666 2487.6 1998.4 2487.6C 1998.4 2484.9666666666667 1998.4 2482.3333333333335 1998.4 2479.7C 2006.2 2479.7 2014 2479.7 2021.8 2479.7C 2023.6666666666667 2481.0666666666666 2025.5333333333333 2482.4333333333334 2027.4 2483.8Z"></path><defs></defs></svg> 