<?xml version="1.0" encoding="UTF-8"?> <svg xmlns="http://www.w3.org/2000/svg" viewBox="1950 2450 100 100" width="100" height="100" data-guides="{&quot;vertical&quot;:[],&quot;horizontal&quot;:[]}"><ellipse color="rgb(51, 51, 51)" fill="rgb(33, 33, 33)" font-size-adjust="none" class="st0" cx="1999.6" cy="2500.3" r="50" id="tSvgaf49ec32e7" title="Ellipse 3" fill-opacity="1" stroke="none" stroke-opacity="1" rx="50" ry="50" style="transform: rotate(0deg); transform-origin: 1999.6px 2500.3px;"></ellipse><path fill="none" stroke="#f6dda7" fill-opacity="1" stroke-width="2" stroke-opacity="1" color="rgb(51, 51, 51)" font-size-adjust="none" stroke-miterlimit="10" class="st1" id="tSvgec912a4b40" title="Path 4" d="M 2008.199951171875 2476.55 C 2016.199951171875 2476.55 2022.599951171875 2483.05 2022.599951171875 2490.9500000000003C 2022.599951171875 2498.8500000000004 2016.099951171875 2505.3500000000004 2008.199951171875 2505.3500000000004C 2003.6666178385417 2505.3500000000004 1999.1332845052084 2505.3500000000004 1994.599951171875 2505.3500000000004C 1994.599951171875 2511.616666666667 1994.599951171875 2517.8833333333337 1994.599951171875 2524.15C 1990.0666178385416 2524.15 1985.5332845052083 2524.15 1980.999951171875 2524.15C 1980.999951171875 2508.25 1980.999951171875 2492.3500000000004 1980.999951171875 2476.4500000000003C 1990.0666178385416 2476.4833333333336 1999.1332845052084 2476.516666666667 2008.199951171875 2476.55Z"></path><path color="rgb(51, 51, 51)" font-size-adjust="none" stroke-miterlimit="10" stroke-width="2" stroke="#f5dca3" x="44.4" y="35.6" class="st1" width="13.6" height="9.2" id="tSvg96edf037a6" title="Rectangle 18" fill="none" fill-opacity="1" stroke-opacity="1" d="M 1994.4 2485.6L 2008 2485.6L 2008 2494.7999999999997L 1994.4 2494.7999999999997Z" style="transform: rotate(0deg); transform-origin: 2001.2px 2490.2px;"></path><defs></defs></svg> 