<?xml version="1.0" encoding="UTF-8"?> <svg xmlns="http://www.w3.org/2000/svg" viewBox="1950 2450 100 100" width="100" height="100" data-guides="{&quot;vertical&quot;:[],&quot;horizontal&quot;:[]}"><ellipse color="rgb(51, 51, 51)" fill="rgb(33, 33, 33)" font-size-adjust="none" class="st0" cx="2000" cy="2500" r="50" id="tSvg134e3704494" title="Ellipse 1" fill-opacity="1" stroke="none" stroke-opacity="1" rx="50" ry="50" style="transform: rotate(0deg); transform-origin: 2000px 2500px;"></ellipse><path fill="none" stroke="#f6dea4" fill-opacity="1" stroke-width="2" stroke-opacity="1" color="rgb(51, 51, 51)" font-size-adjust="none" stroke-miterlimit="10" class="st1" id="tSvg182865dbff9" title="Path 1" d="M 2022.9 2489.8 C 2022.9 2501.733333333333 2022.9 2513.6666666666665 2022.9 2525.6C 2007.5333333333333 2525.6 1992.1666666666667 2525.6 1976.8 2525.6C 1976.8 2513.6666666666665 1976.8 2501.733333333333 1976.8 2489.8C 1978.5 2484.6666666666665 1980.2 2479.5333333333333 1981.9 2474.4C 1993.8666666666666 2474.4 2005.8333333333333 2474.4 2017.8 2474.4C 2019.5 2479.5333333333333 2021.2 2484.6666666666665 2022.9 2489.8Z"></path><line color="rgb(51, 51, 51)" font-size-adjust="none" stroke-miterlimit="10" stroke-width="2" stroke="#f6dda6" class="st1" x1="1992.2" y1="2489.4" x2="1992.2" y2="2474.4" id="tSvg3fda931aea" title="Line 1" fill="none" fill-opacity="1" stroke-opacity="1" style="transform-origin: 1992.2px 2481.9px;"></line><line color="rgb(51, 51, 51)" font-size-adjust="none" stroke-miterlimit="10" stroke-width="2" stroke="#f6dea4" class="st1" x1="2007.5" y1="2489.6" x2="2007.5" y2="2474.4" id="tSvg1c464c9b01" title="Line 2" fill="none" fill-opacity="1" stroke-opacity="1" style="transform-origin: 2007.5px 2482px;"></line><path color="rgb(51, 51, 51)" font-size-adjust="none" stroke-miterlimit="10" stroke-width="2" stroke="#fce8ba" x="40.7" y="48.4" class="st1" width="18.3" height="17" id="tSvgceef143132" title="Rectangle 1" fill="none" fill-opacity="1" stroke-opacity="1" d="M 1990.7000366210937 2498.6L 2009.0000366210936 2498.6L 2009.0000366210936 2515.6L 1990.7000366210937 2515.6Z" style="transform: rotate(0deg); transform-origin: 1999.85px 2507.1px;"></path><line color="rgb(51, 51, 51)" font-size-adjust="none" stroke-miterlimit="10" stroke-width="2" stroke="#f7e5b0" class="st1" x1="2000" y1="2515.4" x2="2000" y2="2498.6" id="tSvg5ae107a74a" title="Line 3" fill="none" fill-opacity="1" stroke-opacity="1" style="transform-origin: 2000px 2507px;"></line><path fill="none" stroke="#f3dfa7" fill-opacity="1" stroke-width="2" stroke-opacity="1" color="rgb(51, 51, 51)" font-size-adjust="none" stroke-miterlimit="10" class="st1" id="tSvg10bf28db302" title="Path 2" d="M 1976.9 2489.7 C 1979 2491.2 1981.6 2492.2 1984.4 2492.2C 1987.3 2492.2 1990 2491.2 1992.2 2489.4C 1994.4 2491.1 1997.1 2492.2 2000 2492.2C 2002.9 2492.2 2005.5 2491.2 2007.6 2489.7C 2009.7 2491.3 2012.3 2492.2 2015.2 2492.2C 2018.2 2492.2 2020.9 2491.2 2023.1 2489.4"></path><defs></defs></svg> 