<?xml version="1.0" encoding="UTF-8"?> <svg xmlns="http://www.w3.org/2000/svg" viewBox="1950 2450 100 100" width="100" height="100" data-guides="{&quot;vertical&quot;:[],&quot;horizontal&quot;:[]}"><ellipse color="rgb(51, 51, 51)" fill="rgb(33, 33, 33)" font-size-adjust="none" class="st0" cx="2000" cy="2500" r="50" id="tSvg468157bda1" title="Ellipse 2" fill-opacity="1" stroke="none" stroke-opacity="1" rx="50" ry="50" style="transform: rotate(0deg); transform-origin: 2000px 2500px;"></ellipse><line color="rgb(51, 51, 51)" font-size-adjust="none" stroke-miterlimit="10" stroke-width="2" stroke="#f6e3b1" class="st1" x1="1979.1" y1="2529.5" x2="2018" y2="2472.6" id="tSvg17e3130adef" title="Line 4" fill="none" fill-opacity="1" stroke-opacity="1" style="transform-origin: 1998.55px 2501.05px;"></line><path fill="none" stroke="#f2d99d" fill-opacity="1" stroke-width="2" stroke-opacity="1" color="rgb(51, 51, 51)" font-size-adjust="none" stroke-miterlimit="10" class="st1" id="tSvg12e0de4bdd9" title="Path 3" d="M 2010.6 2476.8 C 2004.1 2480.3 1985.3 2491.8 1985.3 2491.8C 1980 2495.5 1976.8 2501.9 1977.6 2508.7C 1978.7 2518.7 1987.8 2525.9 1997.8 2524.7C 2004.6 2523.9 2010 2519.4 2012.5 2513.6C 2012.6 2513.5 2012.6 2513.5 2012.6 2513.5C 2015.8 2508.3 2018.1 2493.7 2018.2 2489.3C 2018.3 2485.2 2018.9 2471.3 2018.9 2471.3C 2018.9 2471.3 2017.4 2473.2 2010.6 2476.8Z"></path><defs></defs></svg> 